PathFileType	4	(X/Y/Z)	C:\Users\italobelli\Desktop\GitHub\PTbot_officialCBL\Personal_Results\SHRUG23_noisy1.trc
DataRate	CameraRate	NumFrames	NumMarkers	Units	OrigDataRate	OrigDataStartFrame	OrigNumFrames
108.909091	108.909091	42	9	m	108.909091	151	600
Frame#	Time		gu		centelbow		EpL		centpxt8		centijc7		ij		ts		aa		ai
			X1	Y1	Z1	X2	Y2	Z2	X3	Y3	Z3	X4	Y4	Z4	X5	Y5	Z5	X6	Y6	Z6	X7	Y7	Z7	X8	Y8	Z8	X9	Y9	Z9

151	1.3773	-0.10983	0.014291	0.15173	-0.10278	-0.22204	0.19202	-0.096405	-0.21358	0.22208	-0.046816	-0.15316	-0.008669	-0.046816	0.031938	-0.008669	0	0	0	-0.12364	0.039627	0.022079	-0.13962	0.050194	0.13893	-0.1338	-0.071522	0.037632
152	1.3865	-0.11003	0.014985	0.15145	-0.10137	-0.2213	0.19245	-0.095181	-0.21269	0.22254	-0.046816	-0.15316	-0.008669	-0.046816	0.031938	-0.008669	0	0	0	-0.12335	0.039638	0.021481	-0.14001	0.050772	0.13828	-0.133	-0.071563	0.037464
153	1.3957	-0.11023	0.01566	0.15118	-0.10002	-0.22058	0.19287	-0.094014	-0.21183	0.22299	-0.046816	-0.15316	-0.008669	-0.046816	0.031938	-0.008669	0	0	0	-0.12308	0.039649	0.020904	-0.14038	0.051331	0.13766	-0.13224	-0.071602	0.037304
154	1.4048	-0.1104	0.016315	0.15091	-0.098754	-0.21988	0.19327	-0.09291	-0.21099	0.22342	-0.046816	-0.15316	-0.008669	-0.046816	0.031938	-0.008669	0	0	0	-0.12282	0.039659	0.02035	-0.14073	0.05187	0.13706	-0.13153	-0.07164	0.037151
155	1.414	-0.11057	0.016948	0.15064	-0.097562	-0.21919	0.19365	-0.091872	-0.21017	0.22384	-0.046816	-0.15316	-0.008669	-0.046816	0.031938	-0.008669	0	0	0	-0.12258	0.039668	0.019821	-0.14106	0.052388	0.13648	-0.13087	-0.071677	0.037006
156	1.4232	-0.11072	0.017558	0.15039	-0.096453	-0.21853	0.19402	-0.090902	-0.20939	0.22423	-0.046816	-0.15316	-0.008669	-0.046816	0.031938	-0.008669	0	0	0	-0.12236	0.039676	0.019318	-0.14136	0.052882	0.13593	-0.13026	-0.071711	0.03687
157	1.4324	-0.11086	0.018142	0.15014	-0.095431	-0.21789	0.19437	-0.090006	-0.20863	0.22459	-0.046816	-0.15316	-0.008669	-0.046816	0.031938	-0.008669	0	0	0	-0.12216	0.039683	0.018844	-0.14163	0.053351	0.13541	-0.1297	-0.071744	0.036744
158	1.4416	-0.11099	0.0187	0.1499	-0.0945	-0.21727	0.19469	-0.089186	-0.20791	0.22494	-0.046816	-0.15316	-0.008669	-0.046816	0.031938	-0.008669	0	0	0	-0.12197	0.039689	0.0184	-0.14188	0.053794	0.13492	-0.12921	-0.071774	0.036627
159	1.4508	-0.11109	0.019229	0.14967	-0.093664	-0.21668	0.195	-0.088446	-0.20722	0.22526	-0.046816	-0.15316	-0.008669	-0.046816	0.031938	-0.008669	0	0	0	-0.12181	0.039693	0.017988	-0.14209	0.05421	0.13446	-0.12877	-0.071802	0.03652
160	1.4599	-0.11118	0.019728	0.14944	-0.09293	-0.21612	0.19528	-0.087791	-0.20657	0.22556	-0.046816	-0.15316	-0.008669	-0.046816	0.031938	-0.008669	0	0	0	-0.12167	0.039696	0.017608	-0.14227	0.054596	0.13403	-0.1284	-0.071828	0.036425
161	1.4691	-0.11126	0.020196	0.14923	-0.092299	-0.21558	0.19554	-0.087223	-0.20596	0.22582	-0.046816	-0.15316	-0.008669	-0.046816	0.031938	-0.008669	0	0	0	-0.12156	0.039698	0.017264	-0.14242	0.054951	0.13364	-0.12809	-0.071852	0.036341
162	1.4783	-0.11131	0.02063	0.14903	-0.091778	-0.21507	0.19577	-0.086746	-0.20538	0.22606	-0.046816	-0.15316	-0.008669	-0.046816	0.031938	-0.008669	0	0	0	-0.12146	0.039699	0.016956	-0.14254	0.055274	0.13329	-0.12786	-0.071873	0.036269
163	1.4875	-0.11135	0.021028	0.14883	-0.09137	-0.2146	0.19597	-0.086365	-0.20485	0.22627	-0.046816	-0.15316	-0.008669	-0.046816	0.031938	-0.008669	0	0	0	-0.1214	0.039698	0.016687	-0.14262	0.055563	0.13297	-0.12769	-0.071892	0.03621
164	1.4967	-0.11137	0.021391	0.14865	-0.091079	-0.21415	0.19615	-0.086082	-0.20436	0.22645	-0.046816	-0.15316	-0.008669	-0.046816	0.031938	-0.008669	0	0	0	-0.12136	0.039695	0.016458	-0.14266	0.055817	0.1327	-0.1276	-0.071908	0.036164
165	1.5058	-0.11137	0.021723	0.14848	-0.090888	-0.21373	0.19631	-0.085882	-0.2039	0.22661	-0.046816	-0.15316	-0.008669	-0.046816	0.031938	-0.008669	0	0	0	-0.12134	0.039691	0.016262	-0.14268	0.056041	0.13246	-0.12758	-0.071921	0.03613
166	1.515	-0.11137	0.022054	0.14831	-0.090712	-0.21332	0.19646	-0.085696	-0.20345	0.22676	-0.046816	-0.15316	-0.008669	-0.046816	0.031938	-0.008669	0	0	0	-0.12132	0.039683	0.016072	-0.14268	0.056263	0.13222	-0.12756	-0.071933	0.036105
167	1.5242	-0.11136	0.022385	0.14813	-0.090544	-0.21289	0.19661	-0.085517	-0.20299	0.22691	-0.046816	-0.15316	-0.008669	-0.046816	0.031938	-0.008669	0	0	0	-0.12131	0.039673	0.015884	-0.14269	0.056485	0.13199	-0.12754	-0.071944	0.036088
168	1.5334	-0.11136	0.022718	0.14795	-0.090385	-0.21247	0.19677	-0.085347	-0.20253	0.22705	-0.046816	-0.15316	-0.008669	-0.046816	0.031938	-0.008669	0	0	0	-0.12129	0.039659	0.015698	-0.1427	0.056706	0.13176	-0.12752	-0.071953	0.036079
169	1.5426	-0.11135	0.023051	0.14777	-0.090233	-0.21204	0.19692	-0.085184	-0.20207	0.2272	-0.046816	-0.15316	-0.008669	-0.046816	0.031938	-0.008669	0	0	0	-0.12128	0.039642	0.015515	-0.1427	0.056927	0.13153	-0.1275	-0.071961	0.036078
170	1.5518	-0.11135	0.023384	0.14759	-0.09009	-0.21162	0.19707	-0.085029	-0.20161	0.22735	-0.046816	-0.15316	-0.008669	-0.046816	0.031938	-0.008669	0	0	0	-0.12126	0.039623	0.015334	-0.1427	0.057147	0.1313	-0.12748	-0.071968	0.036083
171	1.5609	-0.11134	0.023718	0.14741	-0.089955	-0.21119	0.19722	-0.084882	-0.20115	0.22749	-0.046816	-0.15316	-0.008669	-0.046816	0.031938	-0.008669	0	0	0	-0.12125	0.039601	0.015156	-0.1427	0.057366	0.13108	-0.12746	-0.071973	0.036096
172	1.5701	-0.11132	0.02405	0.14723	-0.089827	-0.21076	0.19737	-0.084742	-0.20069	0.22764	-0.046816	-0.15316	-0.008669	-0.046816	0.031938	-0.008669	0	0	0	-0.12123	0.039576	0.01498	-0.1427	0.057583	0.13086	-0.12744	-0.071977	0.036115
173	1.5793	-0.11131	0.024382	0.14705	-0.089708	-0.21033	0.19751	-0.08461	-0.20023	0.22778	-0.046816	-0.15316	-0.008669	-0.046816	0.031938	-0.008669	0	0	0	-0.12122	0.039549	0.014806	-0.1427	0.0578	0.13064	-0.12742	-0.07198	0.036141
174	1.5885	-0.1113	0.024713	0.14686	-0.089596	-0.2099	0.19766	-0.084485	-0.19977	0.22792	-0.046816	-0.15316	-0.008669	-0.046816	0.031938	-0.008669	0	0	0	-0.1212	0.03952	0.014636	-0.14269	0.058015	0.13042	-0.1274	-0.071983	0.036172
175	1.5977	-0.11128	0.025043	0.14668	-0.089493	-0.20948	0.1978	-0.084368	-0.19932	0.22806	-0.046816	-0.15316	-0.008669	-0.046816	0.031938	-0.008669	0	0	0	-0.12119	0.039488	0.014467	-0.14269	0.058229	0.13021	-0.12739	-0.071984	0.036209
176	1.6068	-0.11127	0.025371	0.14649	-0.089397	-0.20905	0.19795	-0.084259	-0.19886	0.2282	-0.046816	-0.15316	-0.008669	-0.046816	0.031938	-0.008669	0	0	0	-0.12117	0.039455	0.014301	-0.14268	0.058441	0.13	-0.12737	-0.071984	0.036252
177	1.616	-0.11125	0.025697	0.14631	-0.089308	-0.20863	0.19809	-0.084157	-0.19841	0.22833	-0.046816	-0.15316	-0.008669	-0.046816	0.031938	-0.008669	0	0	0	-0.12116	0.039419	0.014138	-0.14268	0.05865	0.12979	-0.12735	-0.071983	0.036299
178	1.6252	-0.11123	0.026021	0.14612	-0.089228	-0.20821	0.19823	-0.084062	-0.19797	0.22846	-0.046816	-0.15316	-0.008669	-0.046816	0.031938	-0.008669	0	0	0	-0.12115	0.039382	0.013977	-0.14267	0.058858	0.12958	-0.12734	-0.071981	0.036351
179	1.6344	-0.11121	0.026343	0.14594	-0.089155	-0.20779	0.19836	-0.083975	-0.19752	0.22859	-0.046816	-0.15316	-0.008669	-0.046816	0.031938	-0.008669	0	0	0	-0.12114	0.039342	0.013819	-0.14266	0.059063	0.12938	-0.12732	-0.071979	0.036407
180	1.6436	-0.11119	0.026661	0.14576	-0.08909	-0.20738	0.1985	-0.083896	-0.19708	0.22872	-0.046816	-0.15316	-0.008669	-0.046816	0.031938	-0.008669	0	0	0	-0.12112	0.039302	0.013663	-0.14265	0.059266	0.12918	-0.12731	-0.071976	0.036467
181	1.6528	-0.11117	0.026977	0.14558	-0.089033	-0.20697	0.19863	-0.083824	-0.19665	0.22884	-0.046816	-0.15316	-0.008669	-0.046816	0.031938	-0.008669	0	0	0	-0.12111	0.039259	0.01351	-0.14264	0.059466	0.12898	-0.12729	-0.071972	0.036531
182	1.6619	-0.11115	0.027289	0.1454	-0.088983	-0.20656	0.19876	-0.08376	-0.19622	0.22897	-0.046816	-0.15316	-0.008669	-0.046816	0.031938	-0.008669	0	0	0	-0.1211	0.039216	0.013359	-0.14263	0.059663	0.12879	-0.12728	-0.071968	0.036598
183	1.6711	-0.11113	0.027598	0.14522	-0.088941	-0.20616	0.19888	-0.083703	-0.1958	0.22909	-0.046816	-0.15316	-0.008669	-0.046816	0.031938	-0.008669	0	0	0	-0.12109	0.039171	0.013211	-0.14262	0.059857	0.1286	-0.12727	-0.071963	0.036668
184	1.6803	-0.11111	0.027902	0.14504	-0.088906	-0.20576	0.19901	-0.083653	-0.19538	0.2292	-0.046816	-0.15316	-0.008669	-0.046816	0.031938	-0.008669	0	0	0	-0.12108	0.039125	0.013066	-0.1426	0.060048	0.12841	-0.12725	-0.071958	0.03674
185	1.6895	-0.11108	0.028203	0.14486	-0.088879	-0.20537	0.19913	-0.083611	-0.19497	0.22931	-0.046816	-0.15316	-0.008669	-0.046816	0.031938	-0.008669	0	0	0	-0.12107	0.039078	0.012923	-0.14259	0.060236	0.12823	-0.12724	-0.071952	0.036815
186	1.6987	-0.11106	0.028499	0.14469	-0.088859	-0.20499	0.19924	-0.083576	-0.19456	0.22942	-0.046816	-0.15316	-0.008669	-0.046816	0.031938	-0.008669	0	0	0	-0.12106	0.03903	0.012783	-0.14258	0.060419	0.12805	-0.12723	-0.071946	0.036893
187	1.7078	-0.11104	0.028789	0.14452	-0.088847	-0.20461	0.19936	-0.083548	-0.19417	0.22953	-0.046816	-0.15316	-0.008669	-0.046816	0.031938	-0.008669	0	0	0	-0.12105	0.038982	0.012645	-0.14256	0.0606	0.12787	-0.12722	-0.07194	0.036971
188	1.717	-0.11101	0.029075	0.14435	-0.088842	-0.20424	0.19947	-0.083528	-0.19378	0.22963	-0.046816	-0.15316	-0.008669	-0.046816	0.031938	-0.008669	0	0	0	-0.12104	0.038932	0.01251	-0.14255	0.060776	0.12769	-0.12721	-0.071933	0.037051
189	1.7262	-0.11099	0.029356	0.14418	-0.088844	-0.20388	0.19957	-0.083515	-0.1934	0.22973	-0.046816	-0.15316	-0.008669	-0.046816	0.031938	-0.008669	0	0	0	-0.12103	0.038883	0.012377	-0.14254	0.060948	0.12752	-0.1272	-0.071926	0.037133
190	1.7354	-0.11096	0.02963	0.14402	-0.088854	-0.20352	0.19967	-0.083509	-0.19303	0.22982	-0.046816	-0.15316	-0.008669	-0.046816	0.031938	-0.008669	0	0	0	-0.12102	0.038832	0.012248	-0.14252	0.061116	0.12735	-0.12719	-0.071919	0.037215
191	1.7446	-0.11094	0.029899	0.14385	-0.088871	-0.20318	0.19977	-0.083511	-0.19267	0.22991	-0.046816	-0.15316	-0.008669	-0.046816	0.031938	-0.008669	0	0	0	-0.12101	0.038782	0.01212	-0.14251	0.061279	0.12719	-0.12718	-0.071912	0.037297
192	1.7538	-0.11091	0.030161	0.1437	-0.088895	-0.20284	0.19987	-0.083519	-0.19232	0.23	-0.046816	-0.15316	-0.008669	-0.046816	0.031938	-0.008669	0	0	0	-0.121	0.038731	0.011996	-0.14249	0.061438	0.12703	-0.12717	-0.071905	0.037379
